Coordinates
version=1
nRows=14
nColumns=36
inDegrees=yes

Units are S.I. units (second, meters, Newtons, ...)
If the header above contains a line with 'inDegrees', this indicates whether rotational values are in degrees (yes) or radians (no).

endheader
time	pelvis_tilt	pelvis_list	pelvis_rotation	pelvis_tx	pelvis_ty	pelvis_tz	hip_flexion_r	hip_adduction_r	hip_rotation_r	knee_angle_r	knee_angle_r_beta	ankle_angle_r	subtalar_angle_r	mtp_angle_r	hip_flexion_l	hip_adduction_l	hip_rotation_l	knee_angle_l	knee_angle_l_beta	ankle_angle_l	subtalar_angle_l	mtp_angle_l	lumbar_extension	lumbar_bending	lumbar_rotation	arm_flex_r	arm_add_r	arm_rot_r	elbow_flex_r	pro_sup_r	arm_flex_l	arm_add_l	arm_rot_l	elbow_flex_l	pro_sup_l
      0.00000000	      0.41008049	      0.65337684	     -1.30501926	     -0.14188729	      1.21295093	      0.03086399	      2.77362345	     -2.23574200	     -6.46707658	      6.35059031	      0.11083871	     14.86907025	      5.06576522	     -7.12143968	      0.67564719	      1.73585323	     -9.80343235	      4.00089279	      0.06982875	      9.84517205	      3.06618861	     -7.12143968	     -2.85601095	      0.59759511	     -2.91658676	      1.74302566	     -5.95420915	      3.88466027	     21.18563763	     76.33005528	     25.63391686	     -1.02110336	     36.73688000	    139.72188447	     93.38971968
      0.01666670	     -0.49707201	      1.02532405	     -1.01781194	     -0.14238054	      1.21087648	      0.03086486	      3.09604639	     -2.17980470	     -6.84652173	      4.89800550	      0.08548632	     16.14560826	      8.91642196	     -7.14476778	      1.14869288	      2.19551431	    -13.10362320	      2.77255343	      0.04839019	     10.54112108	      5.68536491	     -7.14476778	     -0.76000885	      0.15614829	     -3.02761863	      0.61780638	     -6.01106579	      5.56984959	     21.86292026	     76.94434645	     25.20255403	      1.02296614	     33.95203063	    140.37893453	     93.04023331
      0.03333330	     -1.38185833	      1.28764739	     -1.18275739	     -0.14210795	      1.20653119	      0.03017533	      3.57257583	     -2.29402783	     -7.19019915	      3.91968152	      0.06841135	     16.40844553	      9.84668339	     -7.26038382	      1.99904618	      2.51055955	    -15.83339900	      2.69854737	      0.04709854	     10.77813155	      8.18991645	     -7.26038382	      0.62281962	     -0.16297473	     -3.71382699	      1.23057697	     -6.33197683	     11.67798231	     20.34721611	     85.10782681	     24.77064741	      1.25314771	     32.76060288	    141.34905947	     91.66355358
      0.05000000	     -1.55870376	      1.44130971	     -1.36754126	     -0.14365093	      1.20577226	      0.03043829	      3.60885606	     -2.49957467	     -7.28961042	      3.41567009	      0.05961469	     16.94738367	     10.68490661	     -7.27237895	      1.97843299	      2.77013267	    -17.25552135	      2.17448078	      0.03795185	     10.97401906	     10.12294062	     -7.27237895	      0.79882985	     -0.49387303	     -3.63263901	      1.03536001	     -6.09383556	     12.88061286	     20.51277662	     86.04100629	     25.03400908	      1.24084704	     34.63307866	    141.60463247	     91.26272484
      0.06666670	     -1.71473995	      1.55503753	     -1.43334904	     -0.14220903	      1.20796688	      0.03056954	      3.51116415	     -2.63829093	     -7.35014432	      2.96110149	      0.05168097	     16.95828013	     10.76960808	     -7.33949980	      1.99294515	      2.94593862	    -18.13503841	      1.84862146	      0.03226453	     10.78852224	     11.61095777	     -7.33949980	      1.02487164	     -0.64110037	     -4.16226571	      1.68854486	     -6.14312296	     16.50664253	     19.86919449	     88.08065632	     24.60996269	      0.12128712	     33.93518369	    141.64886440	     88.77695729
      0.08333330	     -1.78654071	      1.62768994	     -1.29059914	     -0.14335290	      1.20826437	      0.02968424	      3.35551170	     -2.74174564	     -7.68171076	      2.78241892	      0.04856237	     16.95376251	     11.24954769	     -7.41995366	      2.04497924	      3.04786195	    -18.61420829	      1.78927629	      0.03122876	     10.64484809	     12.49357458	     -7.41995366	      1.26928313	     -0.70808604	     -4.17498433	      2.10889880	     -6.08799856	     18.43800098	     19.01910198	     87.24004006	     24.65242944	      0.05008154	     34.68297697	    141.90208520	     86.65298403
      0.10000000	     -1.73353641	      1.69502721	     -1.25595418	     -0.14376734	      1.21011616	      0.02947257	      3.23761197	     -2.83435044	     -7.65043151	      2.69642972	      0.04706158	     16.81071265	     11.18776892	     -7.45384371	      1.98766789	      3.09378153	    -19.21862985	      1.76386022	      0.03078517	     10.57797393	     13.24172203	     -7.45384371	      1.18185487	     -0.74771887	     -4.18772778	      2.34729056	     -6.06302636	     18.22433705	     18.97234355	     89.48061175	     24.74553443	     -0.24596679	     34.56420513	    141.89611466	     87.92924657
      0.11666670	     -1.64526546	      1.75953462	     -1.18147384	     -0.14348032	      1.20681298	      0.03001118	      3.07973152	     -2.95071429	     -7.82992293	      2.61462051	      0.04563374	     16.71664530	     11.16886267	     -7.46292976	      1.89113251	      3.13315587	    -19.66192186	      1.79374138	      0.03130669	     10.50728155	     13.69462305	     -7.46292976	      1.12934620	     -0.78471222	     -4.11559373	      2.57129346	     -5.98873302	     17.83081578	     18.69211119	     89.92737339	     25.34613842	     -0.10909852	     35.19424981	    142.02587529	     87.09885417
      0.13333330	     -1.58215990	      1.80316017	     -1.07677545	     -0.14342788	      1.20462528	      0.02983027	      2.98528482	     -3.02841202	     -8.11955921	      2.60222995	      0.04541748	     16.71471681	     11.20414504	     -7.48157102	      1.82437911	      3.15767330	    -20.07640805	      1.86728920	      0.03259034	     10.55069144	     14.24519465	     -7.48157102	      1.15285913	     -0.80124888	     -4.22321490	      2.94903906	     -6.06637720	     19.20382552	     18.12530044	     89.10430469	     26.07729128	     -0.09454133	     35.72418150	    142.19127314	     85.47973215
      0.15000000	     -1.36278140	      1.81957599	     -0.91856387	     -0.14288064	      1.20478116	      0.02946034	      2.67617129	     -3.04206063	     -7.94767950	      2.48121838	      0.04330543	     16.63615507	     10.93059141	     -7.48455160	      1.54476671	      3.16940073	    -19.77206587	      1.82634795	      0.03187579	     10.32325633	     13.81171453	     -7.48455160	      0.86396983	     -0.81297029	     -4.28930436	      3.01873688	     -6.01055881	     18.65546797	     18.29493242	     87.24187567	     26.91290430	     -0.05361366	     36.24698660	    142.25360251	     83.74532023
      0.16666670	     -1.52230727	      1.86282163	     -0.83252626	     -0.14596428	      1.20494507	      0.02937659	      2.94591629	     -3.11978992	     -8.18988818	      2.46698138	      0.04305695	     16.66057974	     11.19934233	     -7.49067390	      1.81615235	      3.18502446	    -20.42058276	      1.89166847	      0.03301584	     10.53832283	     15.01374498	     -7.49067390	      1.03449480	     -0.81818660	     -4.54094395	      3.35944111	     -5.95708315	     18.75600755	     17.87170232	     90.47034422	     27.38812437	      0.08063823	     36.47458528	    142.05413045	     85.89181598
      0.18333330	     -1.45740229	      1.90368457	     -0.64508125	     -0.14418505	      1.20299788	      0.02854305	      2.86115432	     -3.16020746	     -8.21316577	      2.43457079	      0.04249128	     16.77717281	     11.47658393	     -7.49299580	      1.77287695	      3.21402378	    -20.49091174	      1.89550537	      0.03308281	     10.53641863	     15.44852607	     -7.49299580	      0.91743435	     -0.81176895	     -4.65847503	      3.30664783	     -5.82484220	     17.48166122	     18.13664798	     89.34000571	     27.77286403	      0.05671163	     36.40443792	    141.86714349	     84.69089554
      0.20000000	     -1.51469416	      1.89151802	     -0.47821737	     -0.14551348	      1.20366375	      0.02995929	      2.90749746	     -3.11142035	     -7.81275045	      2.37499226	      0.04145143	     16.77028662	     11.40620803	     -7.49599358	      1.94929613	      3.17499767	    -20.23334994	      1.94853553	      0.03400836	     10.63647703	     15.62861576	     -7.49599358	      0.77117209	     -0.70588520	     -4.77904631	      3.66919298	     -5.97043549	     18.00237273	     18.15820710	     91.76657394	     28.05765963	     -0.00379284	     36.47001142	    142.07904508	     85.89855838
      0.21666670	     -1.45863227	      1.95093744	     -0.35833433	     -0.14412141	      1.20608025	      0.02876138	      2.80488175	     -3.19358904	     -7.90679850	      2.36622360	      0.04129839	     16.79596540	     11.60236608	     -7.49716006	      1.90179701	      3.20158042	    -20.48125656	      1.90277519	      0.03320969	     10.59096696	     16.25538445	     -7.49716006	      0.63914199	     -0.80723946	     -4.78845670	      3.48616702	     -5.77167761	     17.06210126	     18.38480301	     89.83830106	     28.08180707	     -0.16076142	     36.53136555	    141.93113609	     84.18543264
